<?xml version="1.0" encoding="UTF-8"?>
<svg id="_레이어_1" data-name="레이어 1" xmlns="http://www.w3.org/2000/svg" xmlns:xlink="http://www.w3.org/1999/xlink" viewBox="0 0 579 579">
  <defs>
    <style>
      .cls-1 {
        fill: url(#_무제_그라디언트_3);
      }

      .cls-2 {
        fill: url(#_무제_그라디언트_3-2);
      }

      .cls-3 {
        fill: url(#_무제_그라디언트_3-3);
      }
    </style>
    <linearGradient id="_무제_그라디언트_3" data-name="무제 그라디언트 3" x1="5.97" y1="578.01" x2="5.97" y2="567.43" gradientTransform="translate(-34.26 31332.64) scale(54.2 -54.2)" gradientUnits="userSpaceOnUse">
      <stop offset="0" stop-color="#e09b3d"/>
      <stop offset=".3" stop-color="#c74c4d"/>
      <stop offset=".6" stop-color="#c21975"/>
      <stop offset="1" stop-color="#7024c4"/>
    </linearGradient>
    <linearGradient id="_무제_그라디언트_3-2" data-name="무제 그라디언트 3" x1="10.61" y1="576.15" x2="10.61" y2="555.71" gradientTransform="translate(-8.1 16158.68) scale(28.04 -28.04)" xlink:href="#_무제_그라디언트_3"/>
    <linearGradient id="_무제_그라디언트_3-3" data-name="무제 그라디언트 3" x1="61.37" y1="561.83" x2="61.37" y2="476.56" gradientTransform="translate(27.27 3779.17) scale(6.72 -6.72)" xlink:href="#_무제_그라디언트_3"/>
  </defs>
  <g id="_그룹_3084" data-name="그룹 3084">
    <g id="_001-instagram-2" data-name=" 001-instagram-2">
      <path id="_패스_2888" data-name="패스 2888" class="cls-1" d="m406.53,0h-234.04C77.27.11.11,77.27,0,172.49v234.04c.12,95.21,77.28,172.37,172.49,172.47h234.04c95.2-.12,172.35-77.27,172.47-172.47v-234.04C578.89,77.28,501.74.12,406.53,0Zm114.24,406.53c0,63.09-51.15,114.24-114.24,114.24h-234.04c-63.09,0-114.24-51.15-114.24-114.24v-234.04c0-63.09,51.15-114.24,114.24-114.24h234.04c63.09,0,114.24,51.15,114.24,114.24v234.04Z"/>
      <path id="_패스_2889" data-name="패스 2889" class="cls-2" d="m289.51,139.75c-82.71,0-149.76,67.05-149.76,149.76s67.05,149.76,149.76,149.76,149.76-67.05,149.76-149.76h0c-.09-82.67-67.09-149.67-149.76-149.76Zm0,241.26c-50.54,0-91.51-40.97-91.51-91.51s40.97-91.51,91.51-91.51,91.51,40.97,91.51,91.51h0c0,50.54-40.97,91.51-91.51,91.51Z"/>
      <circle id="_타원_195" data-name="타원 195" class="cls-3" cx="439.56" cy="140.88" r="35.88"/>
    </g>
  </g>
</svg>