<?xml version="1.0" encoding="UTF-8"?>
<svg id="_레이어_1" data-name="레이어 1" xmlns="http://www.w3.org/2000/svg" viewBox="0 0 1882.05 673.49">
  <defs>
    <style>
      .cls-1 {
        fill: #c0b2da;
      }

      .cls-2 {
        letter-spacing: -.07em;
      }

      .cls-3 {
        letter-spacing: -.05em;
      }

      .cls-4 {
        font-family: NotoSansCJKkr-Black-KSCpc-EUC-H, 'Noto Sans CJK KR';
        font-size: 297.77px;
        font-weight: 800;
      }

      .cls-5 {
        letter-spacing: -.04em;
      }
    </style>
  </defs>
  <path d="m321.06,100.45c-3.33-4.21-3.9-12.33-4.37-17.53-.63-7.02-.46-14.02,1.28-20.86,3.08-12.08,10.83-23.26,20.15-29.64,4.99-3.41,8.7-5.22,13.81-6.7,1.46-.42,2.93-.76,4.41-1.09.63-.14,1.27-.26,1.91-.36-.28.04-1.41.16.01,0,2.99-.36,6.03-.4,9.03-.23.49.03,4.29.49,2.61.22,1.29.21,2.57.48,3.84.79,2.76.67,5.64,1.63,7.14,2.32,6.18,2.85,11.77,6.78,16.56,11.59,19.18,19.29,21.49,54.32,5.81,76.48-8.49,12.01-19.77,20.71-33.21,26.63-.62.27-1.23.55-1.86.81-2.05.85,1.28-.54-.49.16-1.66.66-3.33,1.31-4.96,2.05-3.13,1.42-6.06,3.45-8.33,6.04-6.01,6.86-6.97,16.21-7.12,24.98-.11,6.33.93,13.57-2.11,19.34s-9.24,9.54-14.46,13.39c-12.9,9.52-25.98,18.65-39.5,27.27-27.82,17.74-55.44,35.82-83.27,53.57-55.5,35.39-111.73,69.54-165.02,108.24-12.99,9.43-26.36,18.9-34.96,32.8-8.65,13.98-10.55,32.71-4.22,47.96,13.9,33.52,54.41,29.77,84.37,30.05,16.83.16,33.71-.43,50.55-.52,17.67-.09,35.34-.12,53.01-.05,35.61.14,71.22.28,106.83.4,67.87.22,135.74.28,203.62.13,32.92-.08,65.89.42,98.8-.86,28.39-1.1,67.45.99,84.15-27.62,7.69-13.18,8.05-29.73,2.66-43.82-5.92-15.47-16.61-26.63-29.17-37.06-13.41-11.14-28.17-21.17-42.34-31.35-13.65-9.8-27.48-19.35-41.18-29.07-27.38-19.41-55.69-37.77-83.74-56.19-14.52-9.53-28.67-19.6-43.14-29.19s-27.78-18.41-41.61-27.71c-12.46-8.38-25.15-16.66-36.41-26.51-4.88-4.26-12.17-4.8-16.97,0-4.35,4.35-4.9,12.69,0,16.97,12.12,10.59,25.56,19.65,38.88,28.65,14.11,9.54,28.34,18.91,42.53,28.34,28.01,18.62,55.58,37.91,83.69,56.4s55.96,37.85,83.56,57.4c6.99,4.95,13.83,10.13,20.72,15.21,6.57,4.84,13.49,9.38,19.76,14.59,10.79,8.97,21.02,18.41,24.34,32.5,1.23,5.21,1.27,10.81-.86,15.94-2.25,5.44-6.94,9.02-12.05,11.68-11.23,5.84-25.02,6.11-37.69,6.41-33.09.81-66.16,1.53-99.26,1.22-33.85-.31-67.7.35-101.54.21-34.14-.14-68.29-.34-102.44-.25-34.77.09-69.55-.17-104.32-.36-17.79-.1-35.58-.16-53.37-.1s-34.54-.47-51.73.23c-16.36.67-32.99.49-49.35-.25-6.9-.31-14.01-1.55-19.16-4.52-4.06-2.33-7.4-5.64-9.11-10.14-4.96-13.06.67-25.76,9.82-35.1,10.89-11.12,24.75-19.27,37.14-28.57,13.1-9.83,27.05-18.34,40.75-27.29s27.55-18.27,41.56-27.1c27.42-17.28,54.79-34.63,82.22-51.92s56.47-35.58,83.98-54.37c6.57-4.49,12.97-9.24,19.4-13.94s14.08-9.32,19.37-15.35c5.77-6.57,9.44-14.18,10.61-22.84,1-7.38-.02-14.87.91-22.22.14-1.11.41-2.44.62-3.44-.11.55,1.15-.86.11-.21.67-.42,1.38-.76,2.1-1.1-.2.09-1.49.66-.24.14,1.87-.78,3.75-1.51,5.6-2.32,6.53-2.82,12.87-6.15,18.74-10.18,12.97-8.91,24.82-21.81,31.21-36.3,13.22-29.97,9.57-67.27-12.26-92.24-18.49-21.14-48.64-31.21-75.54-21.36-28.51,10.44-47.47,37.27-49.32,67.41-.97,15.74,1.64,33.64,11.59,46.21,4.02,5.09,12.76,4.21,16.97,0,5.02-5.02,4.03-11.87,0-16.97h0Z"/>
  <circle class="cls-1" cx="354.46" cy="375.91" r="30.18"/>
  <rect class="cls-1" x="340.01" y="375.65" width="28.91" height="66.44"/>
  <text class="cls-4" transform="translate(621 362.32)"><tspan class="cls-2" x="0" y="0">S</tspan><tspan class="cls-5" x="167.94" y="0">tyle</tspan><tspan class="cls-3" x="706.6" y="0">KEY</tspan></text>
</svg>